<svg width="35" height="35" viewBox="0 0 35 35" fill="none" xmlns="http://www.w3.org/2000/svg">
<path d="M31.8 14.6438H30.6253V14.5833H17.5003V20.4166H25.7421C24.5397 23.8124 21.3088 26.25 17.5003 26.25C12.6681 26.25 8.75033 22.3322 8.75033 17.5C8.75033 12.6678 12.6681 8.74996 17.5003 8.74996C19.7309 8.74996 21.7601 9.59142 23.3052 10.9659L27.4301 6.841C24.8255 4.41361 21.3416 2.91663 17.5003 2.91663C9.44668 2.91663 2.91699 9.44632 2.91699 17.5C2.91699 25.5536 9.44668 32.0833 17.5003 32.0833C25.554 32.0833 32.0837 25.5536 32.0837 17.5C32.0837 16.5222 31.983 15.5677 31.8 14.6438Z" fill="#FFC107"/>
<path d="M4.59766 10.7121L9.38901 14.226C10.6855 11.0162 13.8253 8.74996 17.4995 8.74996C19.7301 8.74996 21.7593 9.59142 23.3044 10.9659L27.4293 6.841C24.8247 4.41361 21.3408 2.91663 17.4995 2.91663C11.8981 2.91663 7.04036 6.07902 4.59766 10.7121Z" fill="#FF3D00"/>
<path d="M17.5004 32.0833C21.2673 32.0833 24.69 30.6418 27.2778 28.2975L22.7642 24.4781C21.2509 25.629 19.4017 26.2515 17.5004 26.25C13.7073 26.25 10.4865 23.8314 9.2732 20.4561L4.51758 24.1201C6.93112 28.8429 11.8326 32.0833 17.5004 32.0833Z" fill="#4CAF50"/>
<path d="M31.7997 14.6439H30.625V14.5834H17.5V20.4167H25.7418C25.1666 22.0328 24.1306 23.4451 22.7617 24.4789L22.7639 24.4774L27.2774 28.2968C26.958 28.587 32.0833 24.7917 32.0833 17.5C32.0833 16.5222 31.9827 15.5677 31.7997 14.6439Z" fill="#1976D2"/>
</svg>
